<?xml version="1.0" encoding="UTF-8" standalone="no"?>
<!-- Created with Inkscape (http://www.inkscape.org/) -->

<svg
   xmlns:dc="http://purl.org/dc/elements/1.1/"
   xmlns:cc="http://creativecommons.org/ns#"
   xmlns:rdf="http://www.w3.org/1999/02/22-rdf-syntax-ns#"
   xmlns:svg="http://www.w3.org/2000/svg"
   xmlns="http://www.w3.org/2000/svg"
   xmlns:sodipodi="http://sodipodi.sourceforge.net/DTD/sodipodi-0.dtd"
   xmlns:inkscape="http://www.inkscape.org/namespaces/inkscape"
   width="1690.9321"
   height="1189.1234"
   viewBox="0 0 447.38682 314.61826"
   version="1.1"
   id="svg8"
   sodipodi:docname="logo.svg"
   inkscape:version="0.92.5 (2060ec1f9f, 2020-04-08)">
  <defs
     id="defs2">
    <inkscape:path-effect
       effect="simplify"
       id="path-effect874"
       is_visible="true"
       steps="1"
       threshold="0.00416667"
       smooth_angles="360"
       helper_size="0"
       simplify_individual_paths="false"
       simplify_just_coalesce="false"
       simplifyindividualpaths="false"
       simplifyJustCoalesce="false" />
    <inkscape:path-effect
       effect="simplify"
       id="path-effect870"
       is_visible="true"
       steps="1"
       threshold="0.00416667"
       smooth_angles="360"
       helper_size="0"
       simplify_individual_paths="false"
       simplify_just_coalesce="false"
       simplifyindividualpaths="false"
       simplifyJustCoalesce="false" />
    <inkscape:path-effect
       effect="simplify"
       id="path-effect866"
       is_visible="true"
       steps="1"
       threshold="0.00416667"
       smooth_angles="360"
       helper_size="0"
       simplify_individual_paths="false"
       simplify_just_coalesce="false"
       simplifyindividualpaths="false"
       simplifyJustCoalesce="false" />
    <inkscape:path-effect
       effect="simplify"
       id="path-effect862"
       is_visible="true"
       steps="1"
       threshold="0.00416667"
       smooth_angles="360"
       helper_size="0"
       simplify_individual_paths="false"
       simplify_just_coalesce="false"
       simplifyindividualpaths="false"
       simplifyJustCoalesce="false" />
    <inkscape:path-effect
       effect="simplify"
       id="path-effect854"
       is_visible="true"
       steps="1"
       threshold="0.00416667"
       smooth_angles="360"
       helper_size="0"
       simplify_individual_paths="false"
       simplify_just_coalesce="false"
       simplifyindividualpaths="false"
       simplifyJustCoalesce="false" />
    <inkscape:path-effect
       effect="simplify"
       id="path-effect850"
       is_visible="true"
       steps="1"
       threshold="0.00416667"
       smooth_angles="360"
       helper_size="0"
       simplify_individual_paths="false"
       simplify_just_coalesce="false"
       simplifyindividualpaths="false"
       simplifyJustCoalesce="false" />
    <inkscape:path-effect
       effect="simplify"
       id="path-effect842"
       is_visible="true"
       steps="1"
       threshold="0.00416667"
       smooth_angles="360"
       helper_size="0"
       simplify_individual_paths="false"
       simplify_just_coalesce="false"
       simplifyindividualpaths="false"
       simplifyJustCoalesce="false" />
    <inkscape:path-effect
       effect="simplify"
       id="path-effect830"
       is_visible="true"
       steps="1"
       threshold="0.00416667"
       smooth_angles="360"
       helper_size="0"
       simplify_individual_paths="false"
       simplify_just_coalesce="false"
       simplifyindividualpaths="false"
       simplifyJustCoalesce="false" />
    <inkscape:path-effect
       effect="simplify"
       id="path-effect826"
       is_visible="true"
       steps="1"
       threshold="0.00416667"
       smooth_angles="360"
       helper_size="0"
       simplify_individual_paths="false"
       simplify_just_coalesce="false"
       simplifyindividualpaths="false"
       simplifyJustCoalesce="false" />
  </defs>
  <sodipodi:namedview
     id="base"
     pagecolor="#ffffff"
     bordercolor="#666666"
     borderopacity="1.0"
     inkscape:pageopacity="0.0"
     inkscape:pageshadow="2"
     inkscape:zoom="0.24748737"
     inkscape:cx="1277.3912"
     inkscape:cy="818.05731"
     inkscape:document-units="px"
     inkscape:current-layer="layer1"
     showgrid="false"
     inkscape:window-width="2560"
     inkscape:window-height="1390"
     inkscape:window-x="0"
     inkscape:window-y="0"
     inkscape:window-maximized="1"
     units="px"
     fit-margin-top="150"
     fit-margin-left="150"
     fit-margin-right="150"
     fit-margin-bottom="150" />
  <metadata
     id="metadata5">
    <rdf:RDF>
      <cc:Work
         rdf:about="">
        <dc:format>image/svg+xml</dc:format>
        <dc:type
           rdf:resource="http://purl.org/dc/dcmitype/StillImage" />
        <dc:title></dc:title>
      </cc:Work>
    </rdf:RDF>
  </metadata>
  <g
     inkscape:label="Layer 1"
     inkscape:groupmode="layer"
     id="layer1"
     transform="translate(-256.52435,126.18316)">
    <path
       style="opacity:1;vector-effect:none;fill:none;fill-opacity:1;fill-rule:evenodd;stroke:#4a3619;stroke-width:7.9375;stroke-linecap:butt;stroke-linejoin:miter;stroke-miterlimit:4;stroke-dasharray:none;stroke-dashoffset:0;stroke-opacity:1;paint-order:normal"
       d="m 395.36309,-61.321405 c -7.34466,-6.929691 -18.1524,-3.334989 -27.16301,-3.679181 -7.8495,-0.299839 -14.99978,4.49885 -17.91741,11.856449 -4.32603,10.909246 -3.83712,22.867989 -4.89307,34.373648 -1.36162,14.8362363 -1.7588,29.685922 -1.02036,44.605648 0.7336,14.821898 0.76629,30.008485 -5.31256,44.095945 -3.52723,8.174197 -7.5298,20.586283 -17.74925,20.532631 -11.09208,-0.05823 -18.12456,-11.477395 -20.28377,-21.215855 -3.90435,-17.609384 6.26955,-40.43302 24.42715,-42.953221 10.39295,-1.442499 16.00681,9.646896 22.28728,15.949411 12.68775,12.732287 33.96762,17.375304 49.74539,9.609639 10.39343,-5.115547 24.68683,-9.851843 27.33045,-20.997513 1.20142,-5.065256 10.9171,1.904731 4.88891,0.108397 -7.67342,-2.286593 -15.14801,-2.8316 -19.27608,7.010818 -3.72152,8.873095 -11.50471,19.802044 -5.56036,28.565801 4.04189,5.958963 15.74368,11.015007 20.90694,4.813604 7.25305,-8.711371 11.49779,-20.251261 11.45966,-31.71122 -0.0275,-8.255977 -11.50295,-9.842507 -15.95018,-3.62599 -5.30143,7.410555 0.86549,22.568768 9.96827,19.309386 11.27157,-4.035949 14.03083,-17.003716 22.99634,-24.33519 8.32645,-6.808887 22.06402,-7.330332 28.93105,1.269944 4.64023,5.811427 8.95576,12.027818 14.7665,16.664516 2.69621,2.151449 -1.84943,-10.968714 -6.40712,-13.095713 -9.70893,-4.530997 -22.62909,-0.221424 -27.02441,10.022974 -3.34708,7.801219 -8.24844,18.43832 -3.08919,25.035156 4.81116,6.151754 13.74819,6.262168 20.97813,7.084576 10.62341,1.208416 16.72112,-9.163236 20.91201,-17.45507 2.30475,-4.560035 4.85107,-18.53776 4.8474,-16.538255 -0.0332,18.052228 -13.05963,32.379535 -14.45265,50.498434 -1.19243,15.509806 -3.29473,36.172496 -18.8181,42.306876 -5.3486,2.11361 -17.51114,14.09373 -19.04766,3.93391 -1.94704,-12.87428 8.44899,-24.04061 19.47757,-29.26001 13.44223,-6.36169 29.71885,-10.25779 38.80013,-22.462371 13.01203,-17.487226 46.40235,-20.884819 49.06342,-42.972939 0.38208,-3.171447 -7.91112,6.473987 -9.49893,9.607228 -3.65618,7.214778 -10.93532,15.926238 -7.13168,23.613971 4.17052,8.429253 15.39399,6.231192 23.22614,7.375782 8.37212,1.2235 13.72035,-6.12836 16.86255,-12.779344 4.7472,-10.048223 10.48462,-22.75128 4.90297,-33.169334 -4.5934,-8.573505 -16.60716,-7.437157 -24.07404,-4.024259 -9.4232,4.307078 -15.62719,18.580587 -7.14202,26.504587 7.18038,6.705503 17.93771,5.006732 26.86112,4.565043 25.16939,-1.245828 52.10536,-10.69395 66.68403,-32.374832 7.80003,-11.59993 6.28166,-26.4164491 6.09908,-39.6748049 -0.10842,-7.8729191 -2.53899,-14.5704311 -7.52526,-21.8671091 -6.52334,-9.545952 -22.1148,4.359611 -10.94726,9.674041 3.62211,1.723696 7.82445,1.276335 11.64163,0.560938"
       id="path860"
       inkscape:connector-curvature="0"
       inkscape:path-effect="#path-effect862"
       inkscape:original-d="m 395.36309,-61.321405 c -5.59478,-5.975408 -15.0907,-3.779763 -22.67858,-3.779763 -5.63165,0 -13.06245,0.211283 -17.38691,4.535715 -8.96151,8.961538 -7.76925,22.193421 -9.07142,33.261903 -1.07908,9.172323 -1.4359,18.0628653 -2.26785,27.21428678 -1.61044,17.71483322 4.26873,47.81219222 -2.26785,63.49999922 -2.77958,6.670966 -5.47235,14.603981 -9.82739,20.410712 -10.58117,14.108213 -24.66168,3.428878 -29.48215,-9.827379 -6.06544,-16.680026 1.28381,-35.846469 15.875,-44.60119 3.87077,-2.322462 7.33028,-3.976801 12.09524,-3.023809 4.92659,0.985313 13.42808,11.916177 17.38691,15.875 11.74776,11.747751 28.57349,14.544828 44.60118,11.339284 10.69128,-2.138254 23.54945,-15.088824 31.75,-21.922618 1.90944,-1.591204 4.0499,-8.261048 5.29167,-4.535715 2.98831,8.964861 -5.16393,0.157057 -13.60713,2.267858 -2.49719,0.624297 -10.40394,19.693183 -11.3393,23.434524 -2.89269,11.570806 0.26464,18.195782 11.3393,20.410712 2.79091,0.558186 4.69154,1.433997 7.55952,0 8.27079,-4.1354 21.87495,-37.431559 8.31548,-40.821427 -13.91364,-3.478408 -17.33656,18.159645 -3.77976,22.678572 9.27034,3.090117 16.55694,-15.045039 21.16667,-19.654763 13.7405,-13.740516 29.01109,-12.423812 39.30952,3.023809 2.72536,4.088064 8.35204,7.632687 10.58333,12.095239 0.3538,0.707607 0.13491,-5.318781 -3.02382,-10.583333 -3.56663,-5.944396 -11.08543,-6.703152 -18.14285,-5.291667 -13.15458,2.630917 -16.63096,17.577628 -16.63096,28.726191 0,2.275393 -0.74229,6.31779 0.75596,8.315476 4.12689,5.502542 21.62519,7.671056 27.97024,5.291666 4.38058,-1.642713 8.22251,-6.806035 10.58334,-10.583333 2.92015,-4.672266 4.82317,-11.325042 6.04761,-16.630951 0.88111,-3.818163 1.45793,-7.019518 1.5119,-6.803573 0.59529,2.381107 -0.18595,6.791383 -0.75594,9.071428 -2.41842,9.673634 -7.88289,19.344547 -11.3393,28.72619 -2.61263,7.091418 -1.74874,14.697165 -3.02382,21.922621 -4.21811,23.90269 -10.24262,31.20168 -30.99403,41.57737 -6.30039,3.15021 -7.06059,-6.53141 -6.04763,-10.58332 2.8276,-11.31033 10.42572,-18.2408 20.41072,-22.67857 11.10414,-4.93518 24.54061,-10.56107 34.01785,-18.142862 4.10605,-3.284834 8.37941,-10.05527 11.3393,-13.607142 10.98265,-13.179166 22.58727,-24.14483 37.79761,-31.75 0.83741,-0.4187 3.13619,-1.082857 3.77976,-1.511906 0.41934,-0.279551 -0.50395,-1.511903 0,-1.511903 1.78181,0 -2.51984,2.519841 -3.77976,3.779761 -3.2644,3.2644 -6.43594,8.022926 -8.31548,12.095239 -6.13095,13.283739 -9.7164,24.063118 8.31548,25.702379 4.11761,0.374327 14.00556,1.312698 18.14285,-0.755952 10.96648,-5.48323 32.53198,-59.726742 -6.80355,-49.892857 -11.98404,2.996004 -20.82067,20.549862 -8.31548,29.482142 4.30421,3.074451 11.53967,3.023809 16.63094,3.023809 24.75616,0 50.01768,-6.17244 68.03572,-24.190475 3.88073,-3.880729 8.77076,-10.437273 10.58334,-15.875 3.41373,-10.241185 2.64181,-32.5461097 1.51191,-43.845236 -0.5193,-5.192839 -7.89067,-12.615037 -12.85121,-13.607142 -9.78729,-1.957459 -15.00913,17.969679 6.80357,13.607142" />
    <path
       style="opacity:1;vector-effect:none;fill:none;fill-opacity:1;fill-rule:evenodd;stroke:#d45500;stroke-width:7.9375;stroke-linecap:butt;stroke-linejoin:miter;stroke-miterlimit:4;stroke-dasharray:none;stroke-dashoffset:0;stroke-opacity:1;paint-order:normal"
       d="m 452.05951,194.1905 c 1.21871,-2.57008 2.56735,-5.31642 5.03432,-6.89753 1.98407,-1.27161 4.47891,-0.80818 6.56263,-0.0501 3.85804,1.40353 7.54922,3.38 11.66722,3.97571 4.35543,0.63006 8.78928,0.79685 13.18552,0.4066 1.70215,-0.1511 3.2847,-0.85876 4.64506,-1.87648 1.25041,-0.93547 2.65265,-1.60538 4.17838,-2.02146 2.13743,-0.5829 4.47742,-1.01229 6.13163,-2.60812"
       id="path864"
       inkscape:connector-curvature="0"
       inkscape:path-effect="#path-effect866"
       inkscape:original-d="m 452.05951,194.1905 c 5.62052,-12.34374 10.3002,-6.89795 19.65476,-3.77976 4.01587,1.33861 14.75025,2.13879 18.89882,0.75595 1.8556,-0.61852 3.59719,-2.45899 5.29166,-3.02382 2.39797,-0.79931 5.69008,-1.15435 7.55952,-3.02379"
       transform="translate(-9.6217028,-262.99321)" />
    <path
       style="opacity:1;vector-effect:none;fill:none;fill-opacity:1;fill-rule:evenodd;stroke:#d45500;stroke-width:7.9375;stroke-linecap:butt;stroke-linejoin:miter;stroke-miterlimit:4;stroke-dasharray:none;stroke-dashoffset:0;stroke-opacity:1;paint-order:normal"
       d="m 536.72618,189.65478 c 3.23289,-5.27001 9.21824,-8.25355 15.23765,-8.98385 6.4739,-0.78544 13.07303,0.74927 18.82874,3.7771 3.64833,1.91923 7.40752,3.72372 11.51721,4.45099 5.90526,1.04502 11.94075,1.07023 17.89714,0.72801 3.2034,-0.18405 6.77806,-0.23582 9.40554,-2.30537 1.87931,-1.48025 1.44718,-4.12416 0.44111,-5.98237"
       id="path868"
       inkscape:connector-curvature="0"
       inkscape:path-effect="#path-effect870"
       inkscape:original-d="m 536.72618,189.65478 c 5.90928,-9.3816 18.58811,-10.93888 28.72621,-7.55952 4.62134,1.54046 9.0271,4.73903 13.60712,6.04761 5.81192,1.66055 11.40661,1.51191 17.38691,1.51191 4.84089,0 17.97746,0.42516 13.60715,-8.31549"
       transform="translate(-9.6217028,-262.99321)" />
    <path
       style="opacity:1;vector-effect:none;fill:none;fill-opacity:1;fill-rule:evenodd;stroke:#d45500;stroke-width:7.9375;stroke-linecap:butt;stroke-linejoin:miter;stroke-miterlimit:4;stroke-dasharray:none;stroke-dashoffset:0;stroke-opacity:1;paint-order:normal"
       d="m 399.89881,228.20835 c 1.1974,8.29225 6.92803,15.50498 14.56943,18.89273 12.5545,5.56593 26.63173,4.82801 40.05914,5.19089 13.85678,0.37448 27.73155,0.66903 41.51053,2.49545 14.72122,1.95132 30.28079,2.26831 44.22109,-3.92947 8.50229,-3.78007 15.93049,-10.96045 25.25448,-11.93598 3.47026,-0.36308 6.67446,-2.07823 8.64935,-5.02859 2.49909,-3.73349 5.40288,-7.21646 9.73221,-9.17323 3.94986,-1.78526 8.39279,-2.78722 11.79544,-5.58322"
       id="path872"
       inkscape:connector-curvature="0"
       inkscape:path-effect="#path-effect874"
       inkscape:original-d="m 399.89881,228.20835 c 4.81132,26.99293 38.95389,23.47439 59.72024,24.19049 9.62599,0.33192 19.97335,0.32329 29.48213,1.5119 13.58717,1.69839 26.28021,3.70994 40.06548,0.75595 12.62092,-2.7045 22.15152,-10.66917 34.01785,-15.11906 2.19816,-0.82429 5.58165,-0.94928 7.55954,-2.26785 4.48435,-2.98958 5.50463,-8.51779 10.58333,-11.33928 3.93645,-2.18691 11.8005,-4.24098 14.3631,-6.80357"
       transform="translate(22.128296,-263.74916)" />
  </g>
</svg>
